# xmcd
#
# Track frame offsets: 
#        150
#        15842
#        30806
#        46758
#        60683
#        74230
#        90889
#        110414
#        125860
#        141947
#
# Disc length: 2104 seconds
#
# Revision: 0
# Processed by: cddbd v1.5.2PL0 Copyright (c) Steve Scherf et al.
# Submitted via: ExactAudioCopyFreeDBPlugin 1.0
#
DISCID=7e08360a
DTITLE=Ronnie Milsap - Only One Love In My Life
DYEAR=1978
DGENRE=Country
TTITLE0=Let's Take The Long Way Around The World
TTITLE1=Back On My Mind Again
TTITLE2=Only One Love In My Life
TTITLE3=I'm Not Trying To Forget
TTITLE4=No Relief In Sight
TTITLE5=Once I Get Over You
TTITLE6=Santa Barbara
TTITLE7=Too Soon To Know
TTITLE8=Yesterday's Lovers Never Make Good Friends
TTITLE9=I've Got The Music In Me
EXTD=
EXTT0=
EXTT1=
EXTT2=
EXTT3=
EXTT4=
EXTT5=
EXTT6=
EXTT7=
EXTT8=
EXTT9=
PLAYORDER=
